<?xml version="1.0" encoding="utf-8"?>
<svg viewBox="366.760009765625 500.25006103515625 2481.57421875 3645.80322265625" width="2481.57421875" height="3645.80322265625" xmlns="http://www.w3.org/2000/svg">
  <path d="M1265 4144 c-292 -45 -588 -200 -747 -391 -108 -130 -133 -220 -147 -523 -14 -318 6 -566 70 -880 40 -198 58 -246 169 -465 53 -104 118 -248 144 -320 26 -71 91 -233 143 -360 53 -126 105 -257 115 -290 33 -99 67 -162 112 -207 40 -40 59 -49 260 -116 161 -55 240 -76 304 -82 117 -13 535 -13 548 0 12 12 130 50 158 50 37 1 110 45 139 86 70 97 180 270 197 308 31 73 45 241 42 521 -2 332 13 618 44 820 30 196 41 461 25 595 -16 127 -66 375 -97 480 -46 152 -127 258 -373 483 -91 83 -185 169 -208 191 -82 75 -90 78 -278 87 -227 11 -583 19 -620 13z m646 -613 c119 -45 271 -177 324 -281 68 -134 51 -506 -26 -594 -43 -50 -151 -102 -236 -115 -100 -15 -307 -14 -369 3 -29 7 -91 32 -140 55 -72 34 -104 58 -182 134 -129 126 -135 140 -140 342 -4 172 2 206 62 338 48 104 97 124 351 137 206 11 289 6 356 -19z m-151 -2180 c40 -29 39 -74 -3 -116 -74 -74 -167 -25 -155 81 6 58 99 79 158 35z" transform="matrix(1, 0, 0, 1, 0, 0)"/>
</svg>